<svg width="24" height="25" viewBox="0 0 24 25" fill="none" xmlns="http://www.w3.org/2000/svg">
<path d="M5 22.5001H19C19.5304 22.5001 20.0391 22.2893 20.4142 21.9143C20.7893 21.5392 21 21.0305 21 20.5001V11.5001C21.0008 11.3685 20.9755 11.238 20.9258 11.1162C20.876 10.9943 20.8027 10.8835 20.71 10.7901L12.71 2.79006C12.5226 2.60381 12.2692 2.49927 12.005 2.49927C11.7408 2.49927 11.4874 2.60381 11.3 2.79006L3.3 10.7901C3.20551 10.8827 3.13034 10.9931 3.07885 11.115C3.02735 11.2369 3.00055 11.3678 3 11.5001V20.5001C3 21.0305 3.21071 21.5392 3.58579 21.9143C3.96086 22.2893 4.46957 22.5001 5 22.5001ZM10 20.5001V15.5001H14V20.5001H10ZM5 11.9101L12 4.91006L19 11.9101V20.5001H16V15.5001C16 14.9696 15.7893 14.4609 15.4142 14.0858C15.0391 13.7108 14.5304 13.5001 14 13.5001H10C9.46957 13.5001 8.96086 13.7108 8.58579 14.0858C8.21071 14.4609 8 14.9696 8 15.5001V20.5001H5V11.9101Z" fill="#FF7238"/>
</svg>
