<svg width="24" height="25" viewBox="0 0 24 25" fill="none" xmlns="http://www.w3.org/2000/svg">
<path d="M12 2.05664C6.486 2.05664 2 6.54264 2 12.0566C2 17.5706 6.486 22.0566 12 22.0566C17.514 22.0566 22 17.5706 22 12.0566C22 6.54264 17.514 2.05664 12 2.05664ZM12 20.0566C7.589 20.0566 4 16.4676 4 12.0566C4 7.64564 7.589 4.05664 12 4.05664C16.411 4.05664 20 7.64564 20 12.0566C20 16.4676 16.411 20.0566 12 20.0566Z" fill="#555555"/>
<path d="M11 11.0566H13V17.0566H11V11.0566ZM11 7.05664H13V9.05664H11V7.05664Z" fill="#555555"/>
</svg>
