<svg width="15" height="15" viewBox="0 0 15 15" fill="none" xmlns="http://www.w3.org/2000/svg">
<path d="M7.5 1.25C4.05375 1.25 1.25 4.05375 1.25 7.5C1.25 10.9462 4.05375 13.75 7.5 13.75C10.9462 13.75 13.75 10.9462 13.75 7.5C13.75 4.05375 10.9462 1.25 7.5 1.25ZM7.5 12.5C4.74313 12.5 2.5 10.2569 2.5 7.5C2.5 4.74313 4.74313 2.5 7.5 2.5C10.2569 2.5 12.5 4.74313 12.5 7.5C12.5 10.2569 10.2569 12.5 7.5 12.5Z" fill="white"/>
<path d="M8.125 4.375H6.875V8.125H10.625V6.875H8.125V4.375Z" fill="white"/>
</svg>
