<svg width="64" height="64" viewBox="0 0 64 64" fill="none" xmlns="http://www.w3.org/2000/svg">
<g clip-path="url(#clip0_1498_680)">
<path d="M60.6124 60.6158L3.38569 3.38916L-0.000976562 6.77583L11.7057 18.4825L17.599 30.9092L13.999 37.4425C13.5724 38.1892 13.3324 39.0692 13.3324 40.0025C13.3324 41.417 13.8943 42.7735 14.8945 43.7737C15.8946 44.7739 17.2512 45.3358 18.6657 45.3358H38.559L42.239 49.0158C40.9057 49.9758 39.999 51.5492 39.999 53.3358C39.999 54.7503 40.5609 56.1069 41.5611 57.1071C42.5613 58.1073 43.9179 58.6692 45.3324 58.6692C47.119 58.6692 48.6924 57.7892 49.6524 56.4292L57.2257 64.0025L60.6124 60.6158ZM19.7857 40.0025C19.6089 40.0025 19.4393 39.9323 19.3143 39.8072C19.1893 39.6822 19.119 39.5126 19.119 39.3358L19.199 39.0158L21.599 34.6692H27.8924L33.2257 40.0025H19.7857ZM41.4657 34.6692C43.4657 34.6692 45.2257 33.5758 46.1324 31.9225L55.679 14.6692C55.8924 14.2425 55.999 13.7892 55.999 13.3358C55.999 12.6286 55.7181 11.9503 55.218 11.4502C54.7179 10.9501 54.0396 10.6692 53.3324 10.6692H17.439L41.4657 34.6692ZM18.6657 48.0025C17.2512 48.0025 15.8946 48.5644 14.8945 49.5646C13.8943 50.5648 13.3324 51.9213 13.3324 53.3358C13.3324 54.7503 13.8943 56.1069 14.8945 57.1071C15.8946 58.1073 17.2512 58.6692 18.6657 58.6692C20.0802 58.6692 21.4367 58.1073 22.4369 57.1071C23.4371 56.1069 23.999 54.7503 23.999 53.3358C23.999 51.9213 23.4371 50.5648 22.4369 49.5646C21.4367 48.5644 20.0802 48.0025 18.6657 48.0025Z" fill="#D8D8D8"/>
</g>
<defs>
<clipPath id="clip0_1498_680">
<rect width="64" height="64" fill="white"/>
</clipPath>
</defs>
</svg>
